<?xml version="1.0" encoding="utf-8"?>
<!-- Generator: Adobe Illustrator 26.0.0, SVG Export Plug-In . SVG Version: 6.00 Build 0)  -->
<svg version="1.1" id="圖層_1" xmlns="http://www.w3.org/2000/svg" xmlns:xlink="http://www.w3.org/1999/xlink" x="0px" y="0px"
	 viewBox="0 0 200 200" style="enable-background:new 0 0 200 200;" xml:space="preserve">
<style type="text/css">
	.st0{fill:#C3C8C2;}
	.st1{fill:#FCF9E0;}
	.st2{fill:#EEEEEE;}
	.st3{fill:#111B39;}
	.st4{fill:#999899;}
	.st5{fill:#4A4A4A;}
	.st6{fill:#52615C;stroke:#51605B;stroke-width:0.5;stroke-miterlimit:10;}
	.st7{fill:#52615C;}
	.st8{fill:#C4CBC0;}
	.st9{fill:#1F2020;}
	.st10{fill:#DDDCD9;}
	.st11{fill:#F5F5F5;}
	.st12{fill:#8C6D58;}
	.st13{fill:none;stroke:#C3C8C2;stroke-width:2;stroke-miterlimit:10;}
</style>
<path class="st0" d="M167.43,173.31H31.21V37.08h108.3c15.42,0,27.93,12.5,27.93,27.93V173.31z"/>
<path class="st6" d="M94.8,86.03c-1.09-4.73-1.88-9.56-3.33-14.18c-2.74-8.72-5.82-17.34-8.89-25.96c-0.45-1.27-1.46-2.47-2.49-3.38
	c-2.52-2.21-5.22-4.22-7.84-6.32c-4.45-3.57-7.98-7.89-9.41-13.47c-1.37-5.37-2.39-10.84-3.29-16.31c-0.36-2.23,0.48-2.6,2.48-1.6
	c12.78,6.4,19.07,17.22,21.05,30.97c-1.29,6.65,3.23,11.62,4.68,17.48c0.27-0.02,0.55-0.04,0.82-0.06c0.1-3.22,0.54-6.47,0.23-9.65
	c-0.53-5.45-0.34-10.77,2.31-15.6c1.23-2.24,3.35-4.03,5.23-5.87c1.22-1.19,2.26-0.44,2.85,0.88c1.44,3.23,1.68,6.69,0.2,9.78
	c-1.77,3.68-4.3,6.98-6.38,10.53c-0.86,1.46-1.67,3.07-1.98,4.71c-0.51,2.69-0.55,5.46-0.85,8.19c-0.48,4.29,1.68,8.01,2.49,12.01
	c2.02,9.93,3.97,19.88,5.94,29.83c0.14,0.71,0.25,1.42,0.75,2.19c1.4-4.5,4.84-8.04,4.6-13.28c-0.22-4.9,0.41-9.91,1.19-14.78
	c1.28-8.02,6.91-12.72,13.73-16.01c2.74-1.32,5.94-1.87,8.99-2.33c2.42-0.37,2.9,0.45,2.22,2.77c-4.13,13.94-11.5,25.68-23.34,34.4
	c-0.54,0.4-1.16,0.87-1.42,1.45c-1.87,4.26-3.7,8.54-5.44,12.85c-0.29,0.73-0.22,1.66-0.14,2.47c1.78,17.37,1.85,34.76,0.56,52.16
	c-0.37,5.03-0.78,10.05-1.19,15.07c-0.09,1.06-0.15,2.15-0.44,3.17c-0.12,0.43-0.79,0.71-1.22,1.06c-0.24-0.42-0.66-0.83-0.68-1.26
	c-0.05-1.06,0.02-2.14,0.14-3.2c2.55-23.23,3.12-46.47,0.41-69.72c-0.43-3.71-0.89-7.43-1.45-11.12c-0.14-0.94-0.53-1.95-1.11-2.7
	c-3.99-5.21-8.03-10.38-12.13-15.5c-0.52-0.65-1.5-0.95-2.28-1.39c-3.11-1.73-6.3-3.35-9.31-5.24c-1.1-0.69-1.92-1.96-2.62-3.12
	c-1.7-2.8-1.35-5.66,0.74-7.49c2.08-1.82,5.48-1.97,7.84-0.05c4.25,3.46,6.13,8.19,6.87,13.51c0.16,1.12,0.52,2.36,1.19,3.23
	c2.91,3.78,5.97,7.44,8.98,11.15C94.31,86.22,94.56,86.13,94.8,86.03z M125.08,56.48c-12.18,1.4-22.19,17.07-18.78,28.68
	C111.86,75.24,116.36,64.82,125.08,56.48z M78.93,38.35C77.8,33.78,65.6,12.85,62.18,9.6C60.69,18.48,69.92,34.32,78.93,38.35z
	 M108.61,86.22c9.04-7.44,15.22-16.75,18.32-28.07C118.22,65.8,113.71,76.21,108.61,86.22z M81.55,72.14
	c-0.48-4.6-1.96-8.7-5.48-11.77c-1.79-1.56-4.25-1.48-5.63-0.12c-1.33,1.31-1.31,3.47,0.23,5.4C73.41,69.09,77.15,70.99,81.55,72.14
	z M80.71,35.55c0.14-9.69-8.45-24.13-15.3-26.15C70.43,17.99,75.5,26.64,80.71,35.55z M97.28,26.02c-1.53,4.32-3.07,8.64-4.78,13.46
	C96.24,36.73,98.79,29.98,97.28,26.02z M90.23,36.77c0.31,0.1,0.62,0.21,0.93,0.31c1.13-3.26,2.25-6.53,3.38-9.79
	c-0.32-0.11-0.64-0.22-0.95-0.32C92.46,30.24,91.34,33.5,90.23,36.77z"/>
<path class="st6" d="M123.31,170.29c0.03,11.21-8.35,21.24-19.54,23.34c-11.45,2.15-22.71-4.12-26.91-14.95
	c-1.38-3.56-1.82-7.22-1.33-11.01c1.35-10.37,2.66-20.75,3.97-31.12c0.33-2.63,2.09-4.32,4.31-4.09c2.41,0.25,3.74,2.2,3.37,5.01
	c-1.26,9.69-2.48,19.39-3.82,29.07c-0.84,6.06,0.11,11.73,3.33,16.93c6.65,10.74,19.54,10.38,25.6-0.7
	c2.67-4.88,3.68-10.03,2.86-15.67c-1.44-9.82-2.54-19.68-3.75-29.54c-0.36-2.93,0.92-4.85,3.23-5.1c2.41-0.26,3.98,1.29,4.37,4.21
	c1.32,9.91,2.67,19.82,3.98,29.73C123.16,167.7,123.2,169,123.31,170.29z"/>
<g>
	<path class="st7" d="M42.29,90.41c0.14,0.53,0.21,1.01,0.21,1.45c-0.01,0.65-0.03,1.31-0.05,1.97c0.85-1.14,1.7-1.99,2.57-2.56
		c0.87-0.56,1.75-0.85,2.64-0.85c0.81,0,1.57,0.23,2.27,0.7c0.7,0.47,1.33,1.17,1.91,2.1c0.81-0.96,1.63-1.67,2.46-2.14
		c0.83-0.47,1.66-0.71,2.5-0.71c1.11,0,2.03,0.28,2.77,0.83c0.74,0.55,1.2,1.16,1.38,1.83c0.18,0.67,0.28,1.88,0.28,3.65l-0.09,7.77
		c0,1.13,0.09,1.9,0.28,2.3c0.19,0.41,0.58,0.61,1.16,0.61c0.39,0,0.58,0.12,0.58,0.37c0,0.26-0.32,0.39-0.94,0.39h-5.27
		c-0.51,0-0.77-0.12-0.77-0.37c0-0.22,0.15-0.34,0.45-0.37c0.94-0.06,1.52-0.31,1.75-0.77c0.23-0.46,0.34-2.94,0.34-7.43
		c0-2.1-0.07-3.62-0.2-4.54c-0.13-0.93-0.44-1.69-0.94-2.28c-0.49-0.59-1.1-0.89-1.82-0.89c-0.63,0-1.24,0.23-1.84,0.69
		c-0.59,0.46-1.17,1.15-1.73,2.08c-0.46,1.8-0.69,4.97-0.69,9.51c0,1.6,0.11,2.6,0.32,3.02c0.21,0.42,0.68,0.63,1.4,0.63h0.29
		c0.37,0,0.55,0.12,0.55,0.35c0,0.25-0.23,0.37-0.69,0.37H47.6c-0.58,0-0.87-0.13-0.87-0.39s0.17-0.39,0.5-0.39
		c0.7,0,1.17-0.18,1.42-0.53c0.25-0.35,0.41-1.36,0.5-3.02c0.08-1.66,0.13-3.3,0.13-4.92c0-2.93-0.24-4.85-0.71-5.77
		c-0.47-0.92-1.16-1.38-2.07-1.38c-0.78,0-1.55,0.37-2.31,1.11c-0.76,0.74-1.27,1.74-1.54,3.01c-0.26,1.26-0.39,3.49-0.39,6.67
		c0,2.25,0.09,3.63,0.27,4.13c0.18,0.5,0.63,0.75,1.36,0.75c0.29,0,0.46,0.02,0.52,0.06c0.06,0.04,0.09,0.15,0.09,0.33
		c0,0.22-0.22,0.33-0.67,0.33H38.5c-0.63,0-0.95-0.13-0.95-0.39c0-0.23,0.12-0.36,0.34-0.37c0.62-0.03,1.04-0.17,1.26-0.42
		s0.39-1.01,0.49-2.25c0.1-1.25,0.15-3.28,0.15-6.09s-0.01-4.52-0.04-5.11c-0.03-0.59-0.2-1.07-0.51-1.43
		c-0.31-0.36-0.84-0.54-1.58-0.56c-0.3-0.01-0.45-0.13-0.45-0.36c0-0.15,0.04-0.25,0.12-0.31c0.08-0.06,0.6-0.15,1.55-0.27
		c0.95-0.12,1.8-0.18,2.53-0.18C41.62,90.39,41.9,90.4,42.29,90.41z"/>
	<path class="st7" d="M69.74,90.82c0.06,0.89,0.11,3.47,0.15,7.75c0.02,2.66,0.08,4.44,0.17,5.33c0.09,0.89,0.38,1.62,0.87,2.19
		c0.49,0.58,1.04,0.87,1.67,0.87c0.82,0,1.65-0.46,2.48-1.38c0.83-0.92,1.34-1.91,1.54-2.96c0.19-1.05,0.29-3.46,0.29-7.24
		c0-1.76-0.09-2.82-0.27-3.19c-0.18-0.37-0.63-0.58-1.34-0.64c-0.26-0.01-0.39-0.13-0.39-0.35c0-0.15,0.04-0.25,0.12-0.3
		c0.08-0.05,0.34-0.07,0.77-0.07h3.43c0.1,1.5,0.16,3.17,0.16,5.03l-0.14,7.75c0,1.59,0.11,2.6,0.33,3.01
		c0.22,0.41,0.58,0.65,1.06,0.7c0.3,0.06,0.45,0.19,0.45,0.41c0,0.25-0.29,0.37-0.88,0.37H77.5c-0.47,0-0.7-0.19-0.7-0.56
		c0-0.11,0.01-0.23,0.02-0.37c0.04-0.41,0.05-0.83,0.05-1.26c0-0.36-0.02-0.88-0.05-1.57c-0.87,1.35-1.77,2.36-2.71,3.03
		c-0.94,0.67-1.92,1.01-2.94,1.01c-0.87,0-1.6-0.25-2.19-0.76c-0.59-0.51-0.98-1.12-1.17-1.84c-0.19-0.72-0.32-2.52-0.39-5.39
		c-0.07-2.87-0.1-5.12-0.1-6.76c0-0.89-0.04-1.45-0.12-1.67c-0.08-0.22-0.33-0.34-0.75-0.37c-0.46-0.04-0.69-0.18-0.69-0.41
		c0-0.23,0.28-0.35,0.82-0.35H69.74z"/>
</g>
<g>
	<path class="st7" d="M123.73,98.25c0.03,0.52,0.05,0.89,0.05,1.11l-0.05,2.2l0.09,7.9l0.02,8.17c1.93-1.59,3.36-3.01,4.3-4.23
		c0.94-1.23,1.4-2.11,1.4-2.63c0-0.54-0.42-0.85-1.26-0.95c-0.44-0.05-0.66-0.19-0.66-0.4c0-0.16,0.06-0.26,0.18-0.3
		c0.12-0.04,0.63-0.06,1.52-0.06l2.62,0.02c0.55,0,1.04-0.01,1.49-0.04c0.46,0,0.68,0.12,0.68,0.37c0,0.19-0.13,0.32-0.39,0.37
		c-0.8,0.16-1.48,0.44-2.05,0.82c-0.57,0.38-1.27,1.11-2.12,2.19c-0.79,1-1.3,1.64-1.53,1.9c1.64,0.95,2.89,3.61,3.73,7.96
		c0.21,1.06,0.5,1.8,0.89,2.21c0.39,0.41,1.11,0.64,2.16,0.68c0.34,0.03,0.51,0.15,0.51,0.38c0,0.25-0.29,0.38-0.86,0.38h-4.15
		c-0.42-0.44-0.7-0.89-0.83-1.34c-0.13-0.45-0.25-1.16-0.37-2.11c-0.4-3.3-1.5-5.3-3.29-5.99c-0.06,0.07-0.72,0.65-1.98,1.73
		c-0.01,0.43-0.02,0.81-0.02,1.16c0,2.62,0.13,4.23,0.41,4.84c0.27,0.61,0.74,0.94,1.41,0.98c0.36,0.01,0.54,0.14,0.54,0.39
		c0,0.22-0.37,0.33-1.1,0.33h-4.99c-0.61,0-0.91-0.12-0.91-0.35c0-0.22,0.14-0.36,0.41-0.41c0.58-0.11,0.95-0.23,1.11-0.37
		c0.15-0.14,0.32-0.42,0.5-0.85c0.18-0.43,0.27-1.23,0.27-2.41l-0.02-3.19l-0.17-14.52c0-1.63-0.14-2.78-0.41-3.43
		c-0.27-0.65-0.81-1.05-1.62-1.2c-0.29-0.06-0.43-0.18-0.43-0.37c0-0.23,0.47-0.38,1.42-0.45c0.43-0.04,0.9-0.1,1.39-0.19
		C122.56,98.38,123.27,98.28,123.73,98.25z"/>
	<path class="st7" d="M141.42,109c0.06,0.89,0.11,3.47,0.15,7.75c0.02,2.66,0.08,4.44,0.17,5.33c0.09,0.89,0.38,1.62,0.87,2.19
		c0.49,0.58,1.04,0.87,1.67,0.87c0.82,0,1.65-0.46,2.48-1.38c0.83-0.92,1.34-1.91,1.54-2.96c0.19-1.05,0.29-3.46,0.29-7.24
		c0-1.76-0.09-2.82-0.27-3.19c-0.18-0.37-0.63-0.58-1.34-0.64c-0.26-0.01-0.39-0.13-0.39-0.35c0-0.15,0.04-0.25,0.12-0.3
		c0.08-0.05,0.34-0.07,0.77-0.07h3.43c0.1,1.5,0.16,3.17,0.16,5.03l-0.14,7.75c0,1.59,0.11,2.6,0.33,3.01
		c0.22,0.41,0.58,0.65,1.06,0.7c0.3,0.06,0.45,0.19,0.45,0.41c0,0.25-0.29,0.37-0.88,0.37h-2.71c-0.47,0-0.7-0.19-0.7-0.56
		c0-0.11,0.01-0.23,0.02-0.37c0.04-0.41,0.05-0.83,0.05-1.26c0-0.36-0.02-0.88-0.05-1.57c-0.87,1.35-1.77,2.36-2.71,3.03
		c-0.94,0.67-1.92,1.01-2.94,1.01c-0.87,0-1.6-0.25-2.19-0.76c-0.59-0.51-0.98-1.12-1.17-1.84c-0.19-0.72-0.32-2.52-0.39-5.39
		c-0.07-2.87-0.1-5.12-0.1-6.76c0-0.89-0.04-1.45-0.12-1.67c-0.08-0.22-0.33-0.34-0.75-0.37c-0.46-0.04-0.69-0.18-0.69-0.41
		c0-0.23,0.28-0.35,0.82-0.35H141.42z"/>
</g>
</svg>
